<svg xmlns="http://www.w3.org/2000/svg" width="21" height="21" fill="none" ><rect width="21" height="21" rx="10.5" fill="#27ae60"/><path d="M13.043 14.994l-3.644-.544a.82.82 0 0 1-.465-.238.83.83 0 0 1-.229-.472l-.519-3.911a1.11 1.11 0 0 1 .14-.703l1.233-2.2 1.245-2.624a.46.46 0 0 1 .167-.22c.077-.054.168-.083.262-.083 1.718 0 1.29 1.914.558 4.392h2.518c1.567 0 1.916 1.356 1.567 2.412l-.962 2.859c-.266.8-1.036 1.395-1.871 1.33zM5.438 15c-.058 0-.115-.011-.168-.034s-.101-.055-.142-.096a.44.44 0 0 1-.095-.143c-.022-.054-.033-.111-.033-.169l.008-5.187c0-.117.046-.229.128-.312s.194-.129.31-.129h.94c.107 0 .21.04.291.111s.131.17.144.277l.623 5.187c.008.062.002.125-.017.185s-.049.115-.09.162a.44.44 0 0 1-.148.11c-.057.026-.118.039-.18.039H5.438z" fill="#fff"/></svg>