<svg xmlns="http://www.w3.org/2000/svg" width="24" height="24" fill="none" ><circle cx="12.5" cy="12.5" r="10.5" fill="#27ae60"/><path d="M9.652 12.54a1.5 1.5 0 1 0-2.305 1.921l2.305-1.921zM11 16.5l-1.152.96a1.5 1.5 0 0 0 2.464-.232L11 16.5zm6.46-5.848a1.5 1.5 0 1 0-1.921-2.305l1.921 2.305zM7.348 14.46l2.5 3 2.305-1.921-2.5-3-2.305 1.921zM11 16.5l1.311.729.022-.04.077-.134.307-.515 1.138-1.745c.974-1.4 2.258-3.02 3.604-4.142L15.54 8.348c-1.654 1.378-3.12 3.258-4.146 4.733l-1.237 1.896-.341.572-.092.16-.025.044-.01.018A178.27 178.27 0 0 0 11 16.5z" fill="#fff"/></svg>