<svg xmlns="http://www.w3.org/2000/svg" width="20" height="20" fill="#ff7d7d"><path d="M5 3.5v13a.5.5 0 0 0 .5.5h9a.5.5 0 0 0 .5-.5V7.207a.5.5 0 0 0-.146-.354l-3.707-3.707A.5.5 0 0 0 10.793 3H5.5a.5.5 0 0 0-.5.5z"/><path fill-rule="evenodd" d="M3 16.5v-13A2.5 2.5 0 0 1 5.5 1h5.293a2.5 2.5 0 0 1 1.768.732l3.707 3.707A2.5 2.5 0 0 1 17 7.207V16.5a2.5 2.5 0 0 1-2.5 2.5h-9A2.5 2.5 0 0 1 3 16.5zm2 0v-13a.5.5 0 0 1 .5-.5h5.293a.5.5 0 0 1 .354.146l3.707 3.707a.5.5 0 0 1 .146.354V16.5a.5.5 0 0 1-.5.5h-9a.5.5 0 0 1-.5-.5z"/></svg>