<svg xmlns="http://www.w3.org/2000/svg" width="16" height="20" fill="none"><path d="M6.811 3.65c.536-.866 1.842-.866 2.378 0 .355.573 1.097.805 1.735.542.964-.398 2.02.339 1.924 1.343-.064.664.395 1.271 1.072 1.418 1.023.222 1.427 1.415.735 2.172a1.29 1.29 0 0 0 0 1.752c.692.758.288 1.95-.735 2.172-.677.147-1.136.754-1.072 1.418.096 1.003-.96 1.74-1.924 1.342-.638-.263-1.38-.032-1.735.542-.536.866-1.842.866-2.378 0-.355-.573-1.097-.805-1.735-.542-.964.398-2.02-.339-1.924-1.342.064-.664-.395-1.271-1.072-1.418-1.023-.222-1.427-1.415-.735-2.172a1.29 1.29 0 0 0 0-1.752c-.692-.758-.288-1.95.735-2.172.677-.147 1.136-.754 1.072-1.418-.096-1.003.96-1.74 1.924-1.343.638.263 1.38.032 1.735-.542z" fill="#27ae60"/><path d="M6.707 9.793a1 1 0 0 0-1.414 1.414l1.414-1.414zM7.5 12l-.707.707A1 1 0 0 0 8.3 12.6l-.8-.6zm3.8-3.4a1 1 0 1 0-1.6-1.2l1.6 1.2zm-6.007 2.607l1.5 1.5 1.414-1.414-1.5-1.5-1.414 1.414zM8.3 12.6l3-4-1.6-1.2-3 4 1.6 1.2z" fill="#fff"/></svg>