<svg width="0" height="0" class="hidden">
  <symbol fill="none" xmlns="http://www.w3.org/2000/svg" viewBox="0 0 24 24" id="Flask">
    <path fill-rule="evenodd" clip-rule="evenodd" d="M14.495 3.25H8.5a.75.75 0 000 1.5h.26v5.087a7.25 7.25 0 01-1.255 4.078L4.41 18.463a1.855 1.855 0 001.327 2.887l.086.01.017.002c4.093.46 8.225.46 12.319 0l.017-.002.086-.01a1.855 1.855 0 001.327-2.887l-3.094-4.548a7.25 7.25 0 01-1.256-4.078V4.75h.26a.75.75 0 000-1.5h-1.005zm-4.666 9.3h4.343a8.75 8.75 0 01-.432-2.713V4.75h-3.48v5.087a8.75 8.75 0 01-.431 2.713zM10 17a1 1 0 100 2 1 1 0 000-2zm2-1a1 1 0 112 0 1 1 0 01-2 0z" fill="#000"></path>
  </symbol>
</svg>