<svg width="0" height="0" class="hidden">
  <symbol fill="none" xmlns="http://www.w3.org/2000/svg" viewBox="0 0 24 24" id="Flask">
    <path fill-rule="evenodd" clip-rule="evenodd" d="M14.495 3.25H8.5a.75.75 0 000 1.5h.26v5.087a7.25 7.25 0 01-1.255 4.078L4.41 18.463a1.855 1.855 0 001.327 2.887l.086.01.017.002c4.093.46 8.225.46 12.319 0l.017-.002.086-.01a1.855 1.855 0 001.327-2.887l-3.094-4.548a7.25 7.25 0 01-1.256-4.078V4.75h.26a.75.75 0 000-1.5h-1.005zm-4.666 9.3h4.343a8.75 8.75 0 01-.432-2.713V4.75h-3.48v5.087a8.75 8.75 0 01-.431 2.713zM10 17a1 1 0 100 2 1 1 0 000-2zm2-1a1 1 0 112 0 1 1 0 01-2 0z" fill="#000"></path>
  </symbol>
  <symbol fill="none" xmlns="http://www.w3.org/2000/svg" viewBox="0 0 14 15" id="ressmall">
    <path d="M0 12.06v1.082c0 .686.493 1.27 1.165 1.381a35.94 35.94 0 0011.67 0A1.396 1.396 0 0014 13.143V12.06C14 9.973 12.461 9 10.5 9c-.449 0-1.082.36-1.5.5a6.298 6.298 0 01-4 0C4.602 9.354 3.932 9 3.5 9 1.539 9 0 9.973 0 12.06zM10 3.5C10 5.433 9.5 7 7 7S4 5.433 4 3.5 5.343 0 7 0s3 1.567 3 3.5z" fill="#fff"></path>
  </symbol>
  <symbol fill="none" xmlns="http://www.w3.org/2000/svg" viewBox="0 0 18 15" id="pc">
    <path fill-rule="evenodd" clip-rule="evenodd" d="M9 0l6.54.181c1.155.033 2.11.893 2.242 2.02.29 2.495.29 5.015 0 7.51-.131 1.127-1.087 1.988-2.243 2.02L10 12v2h3.495c.373 0 .505.134.505.5s-.132.5-.505.5h-8.99C4.132 15 4 14.866 4 14.5s.132-.5.505-.5H8v-2l-5.54-.27C1.306 11.7.35 10.839.219 9.71a32.42 32.42 0 010-7.509C.35 1.074 1.305.214 2.461.181L9 0zM2.5 9c-.372 0-.468.12-.468.485 0 .366.096.515.468.515h13.04c.372 0 .46-.15.46-.515S15.912 9 15.54 9H2.5z" fill="#fff"></path>
  </symbol>
  <symbol fill="none" xmlns="http://www.w3.org/2000/svg" viewBox="0 0 20 20" id="person">
    <path fill-rule="evenodd" clip-rule="evenodd" d="M12.091.219C11.513.096 11 .562 11 1.154V8a1 1 0 001 1h6.846c.592 0 1.058-.513.935-1.091a10.013 10.013 0 00-7.69-7.69zm-4.182 0C8.487.096 9 .562 9 1.154V10a1 1 0 00.553.894l7.91 3.956c.53.265.718.933.348 1.395A9.981 9.981 0 0110 20C4.477 20 0 15.523 0 10 0 5.194 3.39 1.18 7.909.219zM18.36 13.062c.53.265 1.176.015 1.324-.558.035-.137.068-.275.097-.413.123-.579-.343-1.091-.935-1.091h-3.763c-.21 0-.278.284-.09.379l3.367 1.683z" fill="#fff"></path>
  </symbol>
  <symbol fill="none" xmlns="http://www.w3.org/2000/svg" viewBox="0 0 12 16" id="list">
    <path fill-rule="evenodd" clip-rule="evenodd" d="M7.742.205A.2.2 0 007.548 0H2.13C.953 0 0 1.01 0 2.256v11.488C0 14.99.953 16 2.129 16h7.742C11.047 16 12 14.99 12 13.744V5.659a.2.2 0 00-.194-.205H8.323c-.321 0-.581-.276-.581-.615V.205zm.58 8c.321 0 .581.276.581.616 0 .34-.26.615-.58.615H3.677c-.32 0-.58-.276-.58-.615 0-.34.26-.616.58-.616h4.646zm0 3.282c.321 0 .581.276.581.616 0 .34-.26.615-.58.615H3.677c-.32 0-.58-.276-.58-.615 0-.34.26-.616.58-.616h4.646z" fill="#fff"></path>
    <path d="M8.903.471c0-.151.15-.247.26-.152.094.08.178.174.25.28l2.333 3.444a.115.115 0 01-.096.18H9.097a.2.2 0 01-.194-.205V.471z" fill="#fff"></path>
  </symbol>
  <symbol fill="none" xmlns="http://www.w3.org/2000/svg" viewBox="0 0 14 13" id="stopk">
    <path d="M7.759.167a1.85 1.85 0 00-1.53-.004c-1.945.94-3.708 2.018-5.251 3.211-.206.16-.343.382-.34.636.002.254.141.474.347.631 1.53 1.172 3.296 2.25 5.206 3.183a1.85 1.85 0 001.53.004c1.945-.94 3.708-2.017 5.251-3.21.206-.16.342-.382.34-.637-.002-.254-.141-.474-.347-.63C11.434 2.178 9.67 1.1 7.76.166z" fill="#fff"></path>
    <path d="M13.734 7.332a.51.51 0 00.18-.73.59.59 0 00-.78-.168L8.526 9.126c-.41.24-.968.373-1.551.373-.584 0-1.141-.133-1.552-.373L.866 6.465a.59.59 0 00-.78.168.51.51 0 00.18.73l4.558 2.661c.625.365 1.4.534 2.15.534s1.527-.169 2.152-.534l4.608-2.692z" fill="#fff"></path>
    <path d="M13.734 9.983a.51.51 0 00.18-.73.59.59 0 00-.78-.168l-3.99 2.331c-.583.34-1.363.525-2.17.525-.805 0-1.585-.184-2.169-.525l-3.94-2.3a.59.59 0 00-.78.168.51.51 0 00.181.73l3.94 2.3c.798.467 1.796.686 2.769.686.972 0 1.97-.22 2.768-.686l3.99-2.331z" fill="#fff"></path>
  </symbol>
  <symbol fill="none" xmlns="http://www.w3.org/2000/svg" viewBox="0 0 16 18" id="gai">
    <path fill-rule="evenodd" clip-rule="evenodd" d="M8.98.552a2 2 0 00-1.96 0l-6 3.375A2 2 0 000 5.67v6.66a2 2 0 001.02 1.743l6 3.375a2 2 0 001.96 0l6-3.375A2 2 0 0016 12.33V5.67a2 2 0 00-1.02-1.743l-6-3.375zM8 13a4 4 0 100-8 4 4 0 000 8zm2-4a2 2 0 11-4 0 2 2 0 014 0z" fill="#fff"></path>
  </symbol>
  <symbol fill="none" xmlns="http://www.w3.org/2000/svg" viewBox="0 0 28 17" id="group">
    <path d="M23.917 4.103C23.917 1.836 22.089 0 19.833 0c-2.256 0-4.083 1.836-4.083 4.103 0 2.267 1.827 4.103 4.083 4.103 2.256 0 4.084-1.836 4.084-4.103zm-4.084 5.862c2.883 0 8.167 1.005 8.167 5.024 0 1.758-.48 2.01-1.441 2.01L18.38 17c.19-.572.287-1.244.287-2.011 0-1.98-.733-3.528-1.95-4.682a14.81 14.81 0 013.116-.342zm-11.666 0c2.882 0 8.166 1.005 8.166 5.024 0 1.758-.48 2.01-1.44 2.01H1.44c-.96 0-1.441-.252-1.441-2.01 0-4.02 5.284-5.024 8.167-5.024zm0-9.965c2.256 0 4.083 1.836 4.083 4.103 0 2.267-1.827 4.103-4.083 4.103-2.256 0-4.084-1.836-4.084-4.103C4.083 1.836 5.911 0 8.167 0z" fill="#fff"></path>
  </symbol>
  <symbol fill="none" xmlns="http://www.w3.org/2000/svg" viewBox="0 0 16 23" id="fire">
    <path d="M8.074.072a.78.78 0 00-.899.18.983.983 0 00-.243.89c.117.531.18 1.085.18 1.653 0 1.298-.322 2.207-.875 2.96-.562.766-1.376 1.39-2.403 2.093a.298.298 0 00-.045.038l-.125.128A8.172 8.172 0 000 14.858C0 19.355 3.582 23 8 23s8-3.645 8-8.142c0-1.32-.309-2.568-.858-3.672a.294.294 0 00-.489-.06l-.245.291c-1.041 1.238-1.881 2.237-3.604 2.683-.073.02-.118.005-.15-.015a.293.293 0 01-.109-.15.503.503 0 01.088-.5c.921-1.016 1.576-2.396 1.81-4.358.437-3.677-1.205-7.593-4.37-9.005z" fill="#fff"></path>
  </symbol>
  <symbol fill="none" xmlns="http://www.w3.org/2000/svg" viewBox="0 0 8 10" id="doll">
    <path d="M7 3C7.55228 3 8 2.55228 8 2C8 1.44772 7.55228 1 7 1V3ZM1 7C0.447715 7 0 7.44772 0 8C0 8.55228 0.447715 9 1 9V7ZM5 1C5 0.447715 4.55228 0 4 0C3.44772 0 3 0.447715 3 1H5ZM3 9C3 9.55229 3.44772 10 4 10C4.55228 10 5 9.55229 5 9H3ZM5 8C5 7.44772 4.55228 7 4 7C3.44772 7 3 7.44772 3 8H5ZM0 3V4H2V3H0ZM2 6H6V4H2V6ZM6 6V7H8V6H6ZM6 7H1V9H6V7ZM7 1H4V3H7V1ZM4 1H2V3H4V1ZM5 2V1H3V2H5ZM5 9V8H3V9H5ZM6 7V9C7.10457 9 8 8.10457 8 7H6ZM6 6H8C8 4.89543 7.10457 4 6 4V6ZM0 4C0 5.10457 0.895431 6 2 6V4H0ZM2 3H2V1C0.89543 1 0 1.89543 0 3H2Z" fill="black"></path>
  </symbol>
  <symbol fill="none" xmlns="http://www.w3.org/2000/svg" viewBox="0 0 12 7" id="btn-arr">
    <path d="M1.70711 0.292893C1.31658 -0.0976311 0.683417 -0.0976311 0.292893 0.292893C-0.0976311 0.683417 -0.0976311 1.31658 0.292893 1.70711L1.70711 0.292893ZM6 6L5.29289 6.70711C5.68342 7.09763 6.31658 7.09763 6.70711 6.70711L6 6ZM11.7071 1.70711C12.0976 1.31658 12.0976 0.683417 11.7071 0.292893C11.3166 -0.0976311 10.6834 -0.0976311 10.2929 0.292893L11.7071 1.70711ZM0.292893 1.70711L5.29289 6.70711L6.70711 5.29289L1.70711 0.292893L0.292893 1.70711ZM6.70711 6.70711L11.7071 1.70711L10.2929 0.292893L5.29289 5.29289L6.70711 6.70711Z" fill="black"></path>
  </symbol>
  <symbol fill="none" xmlns="http://www.w3.org/2000/svg" viewBox="0 0 13 14" id="copras">
    <rect x="5" width="3" height="14" rx="1" fill="black"></rect>
    <rect y="8" width="3" height="6" rx="1" fill="black"></rect>
    <rect x="10" y="5" width="3" height="9" rx="1" fill="black"></rect>
  </symbol>
  <symbol fill="none" xmlns="http://www.w3.org/2000/svg" viewBox="0 0 8 8" id="btn-arr-right">
    <path d="M4.70711 0.292893C4.31658 -0.0976311 3.68342 -0.0976311 3.29289 0.292893C2.90237 0.683417 2.90237 1.31658 3.29289 1.70711L4.70711 0.292893ZM7 4L7.70711 4.70711C8.09763 4.31658 8.09763 3.68342 7.70711 3.29289L7 4ZM3.29289 6.29289C2.90237 6.68342 2.90237 7.31658 3.29289 7.70711C3.68342 8.09763 4.31658 8.09763 4.70711 7.70711L3.29289 6.29289ZM1 3C0.447715 3 0 3.44772 0 4C0 4.55228 0.447715 5 1 5V3ZM3.29289 1.70711L6.29289 4.70711L7.70711 3.29289L4.70711 0.292893L3.29289 1.70711ZM6.29289 3.29289L3.29289 6.29289L4.70711 7.70711L7.70711 4.70711L6.29289 3.29289ZM7 3H1V5H7V3Z" fill="black"></path>
  </symbol>
  <symbol fill="none" xmlns="http://www.w3.org/2000/svg" viewBox="0 0 22 27" id="book">
    <path fill-rule="evenodd" clip-rule="evenodd" d="M0 2.13699C0 0.956761 0.923413 0 2.0625 0H19.9375C21.0766 0 22 0.956761 22 2.13699V7.86306C22 9.04329 21.0766 10 19.9375 10H2.0625C0.923413 10 0 9.04329 0 7.86306V2.13699ZM0 14.137C0 12.9568 0.923413 12 2.0625 12H19.9375C21.0766 12 22 12.9568 22 14.137V19.8631C22 21.0433 21.0766 22 19.9375 22H12V25H20.6974C21.2669 25 21.7286 25.3414 21.7286 25.9316C21.7286 26.5217 21.2669 27 20.6974 27H1.44738C0.877841 27 0.416134 26.5217 0.416134 25.9316C0.416134 25.3414 0.877841 25 1.44738 25H10V22H2.0625C0.923413 22 0 21.0433 0 19.8631V14.137ZM7 5C7 6.10457 6.10457 7 5 7C3.89543 7 3 6.10457 3 5C3 3.89543 3.89543 3 5 3C6.10457 3 7 3.89543 7 5ZM5 19C6.10457 19 7 18.1046 7 17C7 15.8954 6.10457 15 5 15C3.89543 15 3 15.8954 3 17C3 18.1046 3.89543 19 5 19ZM13 5C13 6.10457 12.1046 7 11 7C9.89543 7 9 6.10457 9 5C9 3.89543 9.89543 3 11 3C12.1046 3 13 3.89543 13 5ZM11 19C12.1046 19 13 18.1046 13 17C13 15.8954 12.1046 15 11 15C9.89543 15 9 15.8954 9 17C9 18.1046 9.89543 19 11 19Z" fill="white"></path>
  </symbol>
  <symbol fill="none" xmlns="http://www.w3.org/2000/svg" viewBox="0 0 25 23" id="hat">
    <path fill-rule="evenodd" clip-rule="evenodd" d="M11.8927 1.80315C8.5585 -0.231286 4.48081 -0.563563 0.870631 0.905002C0.3448 1.1189 0 1.63682 0 2.21276V16.3278C0 17.2733 0.939001 17.9198 1.80222 17.5687C4.75858 16.3661 8.0978 16.6382 10.8281 18.3042L12.1797 18.9115C12.2827 18.9744 12.393 19.0019 12.5 19C12.607 19.0019 12.7173 18.9744 12.8203 18.9115L14.1719 18.3042C16.9022 16.6382 20.2414 16.3661 23.1978 17.5687C24.061 17.9198 25 17.2733 25 16.3278V2.21276C25 1.63682 24.6552 1.1189 24.1294 0.905002C20.5192 -0.563563 16.4415 -0.231286 13.1073 1.80315L12.5 2.17373L11.8927 1.80315ZM14 4.69567C14 4.19419 13.1848 3.78766 12.5 3.78766C11.8152 3.78766 11 4.19419 11 4.69567V16.197C11 16.6985 11.8152 17.105 12.5 17.105C13.1848 17.105 14 16.6985 14 16.197V4.69567Z" fill="white"></path>
    <path d="M1.45814 19.8802C3.86749 18.4509 6.84679 18.4509 9.25614 19.8802L10.5505 20.648C11.7552 21.3627 13.2448 21.3627 14.4495 20.648L15.7439 19.8802C18.1532 18.4509 21.1325 18.4509 23.5419 19.8802L23.6642 19.9527C24.0901 20.2054 24.234 20.7614 23.9855 21.1945C23.7371 21.6277 23.1903 21.774 22.7644 21.5213L22.6421 21.4488C20.7887 20.3493 18.497 20.3493 16.6436 21.4488L15.3493 22.2166C13.5886 23.2611 11.4114 23.2611 9.65073 22.2166L8.35637 21.4488C6.50303 20.3493 4.21126 20.3493 2.35791 21.4488L2.2356 21.5213C1.80966 21.774 1.26295 21.6277 1.01448 21.1945C0.766019 20.7614 0.90989 20.2054 1.33583 19.9527L1.45814 19.8802Z" fill="white"></path>
  </symbol>
  <symbol fill="none" xmlns="http://www.w3.org/2000/svg" viewBox="0 0 25 23" id="serv">
    <path fill-rule="evenodd" clip-rule="evenodd" d="M11.8927 1.80315C8.5585 -0.231286 4.48081 -0.563563 0.870631 0.905002C0.3448 1.1189 0 1.63682 0 2.21276V16.3278C0 17.2733 0.939001 17.9198 1.80222 17.5687C4.75858 16.3661 8.0978 16.6382 10.8281 18.3042L12.1797 18.9115C12.2827 18.9744 12.393 19.0019 12.5 19C12.607 19.0019 12.7173 18.9744 12.8203 18.9115L14.1719 18.3042C16.9022 16.6382 20.2414 16.3661 23.1978 17.5687C24.061 17.9198 25 17.2733 25 16.3278V2.21276C25 1.63682 24.6552 1.1189 24.1294 0.905002C20.5192 -0.563563 16.4415 -0.231286 13.1073 1.80315L12.5 2.17373L11.8927 1.80315ZM14 4.69567C14 4.19419 13.1848 3.78766 12.5 3.78766C11.8152 3.78766 11 4.19419 11 4.69567V16.197C11 16.6985 11.8152 17.105 12.5 17.105C13.1848 17.105 14 16.6985 14 16.197V4.69567Z" fill="white"></path>
    <path d="M1.45814 19.8802C3.86749 18.4509 6.84679 18.4509 9.25614 19.8802L10.5505 20.648C11.7552 21.3627 13.2448 21.3627 14.4495 20.648L15.7439 19.8802C18.1532 18.4509 21.1325 18.4509 23.5419 19.8802L23.6642 19.9527C24.0901 20.2054 24.234 20.7614 23.9855 21.1945C23.7371 21.6277 23.1903 21.774 22.7644 21.5213L22.6421 21.4488C20.7887 20.3493 18.497 20.3493 16.6436 21.4488L15.3493 22.2166C13.5886 23.2611 11.4114 23.2611 9.65073 22.2166L8.35637 21.4488C6.50303 20.3493 4.21126 20.3493 2.35791 21.4488L2.2356 21.5213C1.80966 21.774 1.26295 21.6277 1.01448 21.1945C0.766019 20.7614 0.90989 20.2054 1.33583 19.9527L1.45814 19.8802Z" fill="white"></path>
  </symbol>
  <symbol fill="none" xmlns="http://www.w3.org/2000/svg" viewBox="0 0 5 8" id="btn-arrow">
    <path d="M1 1L4 4L1 7" stroke="black" stroke-width="2" stroke-linecap="round" stroke-linejoin="round"></path>
  </symbol>
  <symbol fill="none" xmlns="http://www.w3.org/2000/svg" viewBox="0 0 56 56" id="tools1">
    <rect width="56" height="56" rx="10" fill="white" fill-opacity="0.1"></rect>
    <rect x="46" y="23" width="10" height="10" rx="2" transform="rotate(90 46 23)" fill="white"></rect>
    <rect x="20" y="23" width="10" height="10" rx="2" transform="rotate(90 20 23)" fill="white"></rect>
    <rect x="33" y="10" width="10" height="10" rx="2" transform="rotate(90 33 10)" fill="white"></rect>
    <rect x="33" y="36" width="10" height="10" rx="2" transform="rotate(90 33 36)" fill="white"></rect>
    <path d="M15 21V28V40C15 40.5523 15.4477 41 16 41H35M21 15H39C40.1046 15 41 15.8954 41 17V35" stroke="white" stroke-width="2" stroke-linecap="round" stroke-linejoin="round"></path>
  </symbol>
  <symbol fill="none" xmlns="http://www.w3.org/2000/svg" viewBox="0 0 56 56" id="tools2">
    <rect width="56" height="56" rx="10" fill="white" fill-opacity="0.1"></rect>
    <rect x="27" y="23" width="16" height="10" rx="2" fill="white"></rect>
    <rect x="27" y="10" width="10" height="10" rx="2" transform="rotate(90 27 10)" fill="white"></rect>
    <rect x="27" y="36" width="10" height="10" rx="2" transform="rotate(90 27 36)" fill="white"></rect>
    <path d="M27 28H11M35 23V17C35 15.8954 34.1046 15 33 15H27M45 28H43M35 33V39C35 40.1046 34.1046 41 33 41H27" stroke="white" stroke-width="2" stroke-linecap="round" stroke-linejoin="round"></path>
  </symbol>
  <symbol fill="none" xmlns="http://www.w3.org/2000/svg" viewBox="0 0 24 24" id="mdi">
    <path d="M11.9998 14.5013C12.6748 14.5013 13.2498 14.2513 13.7582 13.7596C14.2498 13.2513 14.4998 12.6763 14.4998 12.0013C14.4998 11.3263 14.2498 10.7513 13.7582 10.243C13.2498 9.7513 12.6748 9.5013 11.9998 9.5013C11.3248 9.5013 10.7498 9.7513 10.2415 10.243C9.74984 10.7513 9.49984 11.3263 9.49984 12.0013C9.49984 12.6763 9.74984 13.2513 10.2415 13.7596C10.7498 14.2513 11.3248 14.5013 11.9998 14.5013ZM11.9998 3.66797C14.2915 3.66797 16.2498 4.5013 17.8748 6.1263C19.4998 7.7513 20.3332 9.70964 20.3332 12.0013V13.2096C20.3332 14.043 20.0415 14.7513 19.4998 15.3346C18.9165 15.893 18.2498 16.168 17.4165 16.168C16.4165 16.168 15.5915 15.7513 14.9665 14.918C14.1332 15.7513 13.1498 16.168 11.9998 16.168C10.8582 16.168 9.87484 15.7513 9.04984 14.9513C8.24984 14.1263 7.83317 13.1513 7.83317 12.0013C7.83317 10.8596 8.24984 9.8763 9.04984 9.0513C9.87484 8.2513 10.8582 7.83464 11.9998 7.83464C13.1498 7.83464 14.1248 8.2513 14.9498 9.0513C15.7498 9.8763 16.1665 10.8596 16.1665 12.0013V13.2096C16.1665 13.5513 16.2998 13.8513 16.5498 14.1096C16.7998 14.368 17.0915 14.5013 17.4165 14.5013C17.7665 14.5013 18.0582 14.368 18.3082 14.1096C18.5582 13.8513 18.6665 13.5513 18.6665 13.2096V12.0013C18.6665 10.1763 18.0248 8.60964 16.7082 7.29297C15.3915 5.9763 13.8248 5.33464 11.9998 5.33464C10.1748 5.33464 8.60817 5.9763 7.2915 7.29297C5.97484 8.60964 5.33317 10.1763 5.33317 12.0013C5.33317 13.8263 5.97484 15.393 7.2915 16.7096C8.60817 18.0263 10.1748 18.668 11.9998 18.668H16.1665V20.3346H11.9998C9.70817 20.3346 7.74984 19.5013 6.12484 17.8763C4.49984 16.2513 3.6665 14.293 3.6665 12.0013C3.6665 9.70964 4.49984 7.7513 6.12484 6.1263C7.74984 4.5013 9.70817 3.66797 11.9998 3.66797Z" fill="#171717"></path>
  </symbol>
  <symbol fill="none" xmlns="http://www.w3.org/2000/svg" viewBox="0 0 5 8" id="bread">
    <path d="M1 1L4 4L1 7" stroke="#6D6D6D"></path>
  </symbol>
  <symbol fill="none" xmlns="http://www.w3.org/2000/svg" viewBox="0 0 16 16" id="link">
    <path d="M5 2H7V4H5C4.44772 4 4 4.44772 4 5V11C4 11.5523 4.44772 12 5 12H11C11.5523 12 12 11.5523 12 11V9H14V11C14 12.6569 12.6569 14 11 14H5C3.34315 14 2 12.6569 2 11V5C2 3.34315 3.34315 2 5 2Z" fill="black"></path>
    <path d="M8 8L13 3M13 3H8M13 3V8" stroke="black" stroke-width="2" stroke-linejoin="round"></path>
  </symbol>
  <symbol fill="none" xmlns="http://www.w3.org/2000/svg" viewBox="0 0 8 5" id="headerarrow">
    <path d="M1.70711 0.292893C1.31658 -0.0976311 0.683417 -0.0976311 0.292893 0.292893C-0.0976311 0.683417 -0.0976311 1.31658 0.292893 1.70711L1.70711 0.292893ZM4 4L3.29289 4.70711C3.68342 5.09763 4.31658 5.09763 4.70711 4.70711L4 4ZM7.70711 1.70711C8.09763 1.31658 8.09763 0.683417 7.70711 0.292893C7.31658 -0.0976311 6.68342 -0.0976311 6.29289 0.292893L7.70711 1.70711ZM0.292893 1.70711L3.29289 4.70711L4.70711 3.29289L1.70711 0.292893L0.292893 1.70711ZM4.70711 4.70711L7.70711 1.70711L6.29289 0.292893L3.29289 3.29289L4.70711 4.70711Z" fill="black"></path>
  </symbol>
  <symbol fill="none" xmlns="http://www.w3.org/2000/svg" viewBox="0 0 24 24" id="readmore">
    <path d="M10.2929 14.2929C9.90237 14.6834 9.90237 15.3166 10.2929 15.7071C10.6834 16.0976 11.3166 16.0976 11.7071 15.7071L10.2929 14.2929ZM14 12L14.7071 12.7071C15.0976 12.3166 15.0976 11.6834 14.7071 11.2929L14 12ZM11.7071 8.29289C11.3166 7.90237 10.6834 7.90237 10.2929 8.29289C9.90237 8.68342 9.90237 9.31658 10.2929 9.70711L11.7071 8.29289ZM11.7071 15.7071L14.7071 12.7071L13.2929 11.2929L10.2929 14.2929L11.7071 15.7071ZM14.7071 11.2929L11.7071 8.29289L10.2929 9.70711L13.2929 12.7071L14.7071 11.2929Z" fill="#2F80ED"></path>
  </symbol>
  <symbol fill="none" xmlns="http://www.w3.org/2000/svg" viewBox="0 0 24 24" id="iconlink">
    <path d="M11.2929 11.2929C10.9024 11.6834 10.9024 12.3166 11.2929 12.7071C11.6834 13.0976 12.3166 13.0976 12.7071 12.7071L11.2929 11.2929ZM17 7H18C18 6.44772 17.5523 6 17 6V7ZM12.7071 12.7071L17.7071 7.70711L16.2929 6.29289L11.2929 11.2929L12.7071 12.7071ZM17 6H12V8H17V6ZM16 7V12H18V7H16Z" fill="#2F80ED"></path>
    <path d="M18 14C18 16.2091 16.2091 18 14 18H10C7.79086 18 6 16.2091 6 14V10C6 7.79086 7.79086 6 10 6V8C8.89543 8 8 8.89543 8 10V14C8 15.1046 8.89543 16 10 16H14C15.1046 16 16 15.1046 16 14H18Z" fill="#2F80ED"></path>
  </symbol>
  <symbol fill="none" xmlns="http://www.w3.org/2000/svg" viewBox="0 0 16 16" id="debitcard">
    <g clip-path="url(#clip0)">
      <rect x="-0.0722656" y="4.85278" width="13" height="10" rx="2" transform="rotate(-15 -0.0722656 4.85278)" fill="url(#paint0_linear)"></rect>
      <rect x="1.48047" y="10.6482" width="13" height="2" transform="rotate(-15 1.48047 10.6482)" fill="#1C8350"></rect>
    </g>
    <defs>
      <linearGradient id="paint0_linear" x1="-0.0722656" y1="4.85278" x2="13.5623" y2="13.8961" gradientUnits="userSpaceOnUse">
        <stop stop-color="#27AE60"></stop>
        <stop offset="1" stop-color="#3AE392"></stop>
      </linearGradient>
      <clipPath id="clip0">
        <rect width="16" height="16" fill="white"></rect>
      </clipPath>
    </defs>
  </symbol>
  <symbol fill="none" xmlns="http://www.w3.org/2000/svg" viewBox="0 0 16 16" id="paypal">
    <path d="M12.6928 4.55688C12.6798 4.63993 12.665 4.72483 12.6483 4.81205C12.0744 7.75846 10.111 8.77632 7.60348 8.77632H6.32675C6.02009 8.77632 5.76168 8.99901 5.7139 9.30149L5.06022 13.4472L4.87511 14.6223C4.84403 14.8209 4.99713 14.9999 5.19755 14.9999H7.46199C7.73014 14.9999 7.95793 14.8051 8.00014 14.5406L8.02241 14.4256L8.44876 11.72L8.47614 11.5715C8.51789 11.3061 8.74614 11.1113 9.01429 11.1113H9.35296C11.5469 11.1113 13.2644 10.2205 13.7663 7.64294C13.976 6.56616 13.8675 5.66707 13.3126 5.03473C13.1447 4.84406 12.9364 4.68586 12.6928 4.55688Z" fill="#179BD7"></path>
    <path d="M12.0924 4.31756C12.0048 4.29204 11.9143 4.26884 11.8215 4.24797C11.7283 4.22755 11.6327 4.20946 11.5343 4.19369C11.1901 4.13802 10.8129 4.11157 10.4088 4.11157H6.99802C6.91405 4.11157 6.83426 4.13059 6.76281 4.16492C6.60554 4.24054 6.48863 4.38947 6.46033 4.57179L5.73474 9.16748L5.71387 9.30155C5.76165 8.99907 6.02006 8.77638 6.32672 8.77638H7.60345C10.111 8.77638 12.0743 7.75806 12.6482 4.81211C12.6654 4.72489 12.6798 4.63999 12.6928 4.55694C12.5475 4.47993 12.3903 4.41405 12.2209 4.35792C12.1792 4.344 12.136 4.33055 12.0924 4.31756Z" fill="#222D65"></path>
    <path d="M6.46021 4.57179C6.48851 4.38947 6.60542 4.24055 6.7627 4.16539C6.8346 4.13106 6.91394 4.11204 6.99791 4.11204H10.4087C10.8128 4.11204 11.19 4.13848 11.5342 4.19416C11.6326 4.20993 11.7281 4.22802 11.8214 4.24843C11.9142 4.26931 12.0046 4.29251 12.0923 4.31802C12.1359 4.33101 12.1791 4.34447 12.2213 4.35792C12.3906 4.41406 12.5479 4.4804 12.6931 4.55695C12.8638 3.46811 12.6917 2.72675 12.103 2.05544C11.454 1.3164 10.2825 1 8.78357 1H4.43191C4.12572 1 3.86453 1.22269 3.81721 1.52563L2.00463 13.0148C1.96891 13.2422 2.14428 13.4472 2.37346 13.4472H5.06007L5.73463 9.16748L6.46021 4.57179Z" fill="#253B80"></path>
  </symbol>
  <symbol fill="none" xmlns="http://www.w3.org/2000/svg" viewBox="0 0 16 16" id="webmoney">
    <path d="M7.9667 1C9.05893 1 10.0981 1.25024 11.0306 1.69787C11.1769 1.76385 11.3241 1.84282 11.4698 1.92185L10.8304 2.48824L9.87187 1.50055L8.22015 2.949L7.24749 1.90852L4.21023 4.60824L6.15478 6.72844L5.39565 7.38671L7.31415 9.50691L6.55495 10.1649L9.29925 13.1806L10.9235 11.7057L12.3362 13.2863C12.0562 13.4971 11.7498 13.7082 11.4172 13.8922C10.4046 14.4584 9.23217 14.787 7.98015 14.787C4.13002 14.787 1.00004 11.693 1.00004 7.88759C0.986448 4.10789 4.11697 1 7.9667 1ZM6.68767 7.46589L8.35286 5.99091L9.84513 7.63695L8.1796 9.11179L6.68767 7.46589ZM7.87357 10.3104L9.52522 8.82238L11.0306 10.4683L9.36537 11.9433L7.87357 10.3104ZM5.50279 4.66109L7.1675 3.18611L8.65944 4.83215L6.99418 6.30706L5.50279 4.66109ZM8.55271 3.87071L9.79167 2.7646L10.9109 3.98934L9.67194 5.10852L8.55271 3.87071ZM10.7643 8.94066L12.0028 7.83448L13.122 9.072L11.8829 10.1789L10.7643 8.94066ZM11.8564 11.4298L13.0954 10.3234L14.2137 11.5481L12.9752 12.6671L11.8564 11.4298ZM12.3627 5.74067L13.1885 5.00315L13.9342 5.81991L13.1086 6.55716L12.3627 5.74067ZM11.297 3.30446L12.1229 2.55401L12.8691 3.38349L12.0427 4.12095L11.297 3.30446ZM13.4149 8.17709L14.2407 7.43963L15 8.25613L14.1611 8.99338L13.4149 8.17709ZM9.69847 6.34658L10.9375 5.2404L12.0562 6.46487L10.8177 7.57125L9.69847 6.34658Z" fill="#036CB5"></path>
  </symbol>
  <symbol fill="none" xmlns="http://www.w3.org/2000/svg" viewBox="0 0 16 16" id="btc">
    <path d="M14.789 9.69333C13.8541 13.4434 10.0559 15.7256 6.30544 14.7904C2.55653 13.8555 0.274329 10.0571 1.20964 6.30738C2.14413 2.55693 5.94231 0.274563 9.69163 1.20946C13.4418 2.14436 15.7239 5.94319 14.7889 9.6934L14.789 9.69333H14.789Z" fill="#F7931A"></path>
    <path d="M11.0715 6.99708C11.2108 6.06553 10.5016 5.56479 9.53177 5.23075L9.84638 3.96888L9.07825 3.77748L8.77199 5.00612C8.57005 4.95576 8.36267 4.9083 8.15656 4.86125L8.46504 3.62451L7.69739 3.43311L7.38261 4.69456C7.2155 4.65651 7.05137 4.61891 6.89213 4.57929L6.89302 4.57532L5.83374 4.3108L5.62941 5.13121C5.62941 5.13121 6.1993 5.26185 6.18729 5.26989C6.49834 5.34752 6.55459 5.55343 6.54525 5.71664L6.18688 7.1542C6.2083 7.15964 6.23608 7.16751 6.26674 7.17982C6.24111 7.17346 6.21384 7.16651 6.18555 7.15974L5.68323 9.17355C5.64522 9.26805 5.54873 9.40988 5.33126 9.35602C5.33896 9.36718 4.77297 9.2167 4.77297 9.2167L4.3916 10.096L5.3912 10.3452C5.57716 10.3918 5.75939 10.4406 5.93885 10.4865L5.62099 11.7628L6.38824 11.9542L6.70302 10.6914C6.91262 10.7483 7.11603 10.8008 7.31517 10.8503L7.00145 12.1071L7.76962 12.2985L8.08744 11.0246C9.39727 11.2725 10.3822 11.1725 10.7967 9.98777C11.1308 9.03392 10.7801 8.48374 10.091 8.12495C10.5929 8.0092 10.9709 7.67909 11.0717 6.99718L11.0715 6.99701L11.0715 6.99708ZM9.31646 9.45805C9.07907 10.4119 7.47307 9.89628 6.95238 9.76698L7.37419 8.07606C7.89484 8.20604 9.56455 8.46327 9.31649 9.45805H9.31646ZM9.55401 6.98326C9.33747 7.85089 8.00077 7.41009 7.56716 7.30201L7.94959 5.76844C8.3832 5.87653 9.7796 6.07826 9.55408 6.98326H9.55401Z" fill="white"></path>
  </symbol>
  <symbol fill="none" xmlns="http://www.w3.org/2000/svg" viewBox="0 0 24 24" id="phone">
    <path d="M14.3339 14.9497L15.5395 13.7437C15.7018 13.5833 15.9073 13.4734 16.1308 13.4276C16.3544 13.3817 16.5864 13.4017 16.7988 13.4853L18.2681 14.0721C18.4827 14.1593 18.6667 14.308 18.797 14.4997C18.9272 14.6913 18.9979 14.9172 19 15.1489V17.8409C18.9988 17.9986 18.9656 18.1543 18.9026 18.2988C18.8396 18.4433 18.748 18.5735 18.6334 18.6817C18.5188 18.7898 18.3834 18.8737 18.2355 18.9281C18.0877 18.9825 17.9303 19.0065 17.7729 18.9985C7.47744 18.3578 5.40004 9.63567 5.00717 6.29757C4.98893 6.13365 5.00559 5.96772 5.05606 5.8107C5.10653 5.65368 5.18966 5.50913 5.29998 5.38656C5.4103 5.26399 5.54531 5.16618 5.69613 5.09955C5.84695 5.03293 6.01016 4.99901 6.17503 5.00002H8.77447C9.00643 5.00071 9.23288 5.0708 9.4247 5.20129C9.61652 5.33178 9.76493 5.51669 9.85084 5.73225L10.4375 7.20209C10.5237 7.41372 10.5457 7.64608 10.5007 7.87015C10.4557 8.09421 10.3458 8.30005 10.1845 8.46195L8.97898 9.66797C8.97898 9.66797 9.67324 14.3682 14.3339 14.9497Z" fill="#2F80ED"></path>
  </symbol>
  <symbol fill="none" xmlns="http://www.w3.org/2000/svg" viewBox="0 0 24 24" id="tg">
    <path d="M17.8635 6.13639L5.46012 11.0323C4.96099 11.2603 4.79217 11.7169 5.33948 11.9647L8.52147 12.9998L16.2151 8.13271C16.6352 7.82716 17.0653 7.90864 16.6952 8.24476L10.0874 14.3689L9.87983 16.9607C10.0721 17.3609 10.4241 17.3627 10.6486 17.1638L12.4768 15.3932L15.6078 17.7931C16.335 18.2337 16.7307 17.9494 16.8872 17.1417L18.9408 7.18775C19.154 6.19353 18.7904 5.75546 17.8635 6.13639Z" fill="#2F80ED"></path>
  </symbol>
  <symbol fill="none" xmlns="http://www.w3.org/2000/svg" viewBox="0 0 24 24" id="wtsp">
    <path d="M5.00281 19L5.94921 15.5224C5.32561 14.4534 4.99798 13.2376 5.00001 12C5.00001 8.1339 8.13391 5 12 5C15.8661 5 19 8.1339 19 12C19 15.8661 15.8661 19 12 19C10.7629 19.002 9.54767 18.6746 8.47901 18.0515L5.00281 19ZM9.47371 8.7156C9.38331 8.72121 9.29498 8.74502 9.21401 8.7856C9.13807 8.8286 9.06875 8.88235 9.00821 8.9452C8.92421 9.0243 8.87661 9.0929 8.82551 9.1594C8.56679 9.49609 8.42763 9.90939 8.43001 10.334C8.43141 10.677 8.52101 11.0109 8.66101 11.3231C8.94731 11.9545 9.41841 12.623 10.0407 13.2425C10.1905 13.3916 10.3368 13.5414 10.4943 13.6807C11.2667 14.3607 12.1871 14.8511 13.1823 15.1129L13.5806 15.1738C13.7101 15.1808 13.8396 15.171 13.9698 15.1647C14.1737 15.1542 14.3727 15.099 14.5529 15.003C14.6446 14.9558 14.734 14.9044 14.821 14.849C14.821 14.849 14.8511 14.8294 14.9085 14.786C15.003 14.716 15.0611 14.6663 15.1395 14.5844C15.1976 14.5242 15.248 14.4535 15.2865 14.373C15.3411 14.2589 15.3957 14.0412 15.4181 13.8599C15.4349 13.7213 15.43 13.6457 15.4279 13.5988C15.4251 13.5239 15.3628 13.4462 15.2949 13.4133L14.8875 13.2306C14.8875 13.2306 14.2785 12.9653 13.9068 12.7959C13.8676 12.7788 13.8256 12.7691 13.7829 12.7672C13.735 12.7623 13.6866 12.7677 13.641 12.783C13.5953 12.7983 13.5535 12.8233 13.5183 12.8561V12.8547C13.5148 12.8547 13.4679 12.8946 12.9618 13.5078C12.9328 13.5468 12.8927 13.5763 12.8469 13.5925C12.801 13.6087 12.7513 13.6109 12.7042 13.5988C12.6586 13.5866 12.6139 13.5712 12.5705 13.5526C12.4837 13.5162 12.4536 13.5022 12.3941 13.4763L12.3906 13.4749C11.9901 13.3001 11.6194 13.0639 11.2916 12.7749C11.2034 12.6979 11.1215 12.6139 11.0375 12.5327C10.7621 12.269 10.5221 11.9706 10.3235 11.6451L10.2822 11.5786C10.2525 11.5339 10.2286 11.4857 10.2108 11.4351C10.1842 11.3322 10.2535 11.2496 10.2535 11.2496C10.2535 11.2496 10.4236 11.0634 10.5027 10.9626C10.5686 10.8788 10.63 10.7917 10.6868 10.7015C10.7694 10.5685 10.7953 10.432 10.7519 10.3263C10.5559 9.8475 10.3529 9.3708 10.1443 8.8976C10.103 8.8038 9.98051 8.7366 9.86921 8.7233C9.83141 8.7191 9.79361 8.7149 9.75581 8.7121C9.6618 8.70743 9.5676 8.70836 9.47371 8.7149V8.7156Z" fill="#2F80ED"></path>
  </symbol>
  <symbol fill="none" xmlns="http://www.w3.org/2000/svg" viewBox="0 0 24 24" id="fb">
    <path d="M10.6699 18V10.3535H9.25488V8.49023H10.6699V7.68164C10.6699 6.61523 10.9746 5.78906 11.584 5.20312C12.1992 4.61133 13.0576 4.31543 14.1592 4.31543C14.5107 4.31543 14.9414 4.37402 15.4512 4.49121L15.4248 6.45996C15.2139 6.40723 14.9561 6.38086 14.6514 6.38086C13.6963 6.38086 13.2188 6.8291 13.2188 7.72559V8.49023H15.1084V10.3535H13.2188V18H10.6699Z" fill="#2F80ED"></path>
  </symbol>
  <symbol fill="none" xmlns="http://www.w3.org/2000/svg" viewBox="0 0 24 24" id="in">
    <path d="M8.7207 18H6.17188V8.49023H8.7207V18ZM6.02246 6.0293C6.02246 5.64844 6.14844 5.33496 6.40039 5.08887C6.6582 4.84277 7.00684 4.71973 7.44629 4.71973C7.87988 4.71973 8.22559 4.84277 8.4834 5.08887C8.74121 5.33496 8.87012 5.64844 8.87012 6.0293C8.87012 6.41602 8.73828 6.73242 8.47461 6.97852C8.2168 7.22461 7.87402 7.34766 7.44629 7.34766C7.01855 7.34766 6.67285 7.22461 6.40918 6.97852C6.15137 6.73242 6.02246 6.41602 6.02246 6.0293ZM13.1592 8.49023L13.2383 9.58887C13.918 8.73926 14.8291 8.31445 15.9717 8.31445C16.9795 8.31445 17.7295 8.61035 18.2217 9.20215C18.7139 9.79395 18.9658 10.6787 18.9775 11.8564V18H16.4375V11.918C16.4375 11.3789 16.3203 10.9893 16.0859 10.749C15.8516 10.5029 15.4619 10.3799 14.917 10.3799C14.2021 10.3799 13.666 10.6846 13.3086 11.2939V18H10.7686V8.49023H13.1592Z" fill="#2F80ED"></path>
  </symbol>
  <symbol fill="none" xmlns="http://www.w3.org/2000/svg" viewBox="0 0 24 24" id="inst">
    <path d="M12 4C9.82667 4 9.55533 4.01 8.702 4.048C7.85 4.088 7.27 4.222 6.76 4.42C6.234 4.624 5.78733 4.898 5.34267 5.34267C4.898 5.78733 4.62333 6.23333 4.42 6.76C4.222 7.27 4.08733 7.85 4.048 8.702C4.008 9.55533 4 9.82667 4 12C4 14.1733 4.01 14.4447 4.048 15.298C4.088 16.1493 4.222 16.73 4.42 17.24C4.62086 17.7739 4.93573 18.2576 5.34267 18.6573C5.74218 19.0646 6.22593 19.3795 6.76 19.58C7.27067 19.7773 7.85067 19.9127 8.702 19.952C9.55533 19.992 9.82667 20 12 20C14.1733 20 14.4447 19.99 15.298 19.952C16.1493 19.912 16.73 19.7773 17.24 19.58C17.7738 19.3789 18.2574 19.0641 18.6573 18.6573C19.0647 18.2579 19.3796 17.7741 19.58 17.24C19.7773 16.73 19.9127 16.1493 19.952 15.298C19.992 14.4447 20 14.1733 20 12C20 9.82667 19.99 9.55533 19.952 8.702C19.912 7.85067 19.7773 7.26933 19.58 6.76C19.379 6.22615 19.0642 5.74249 18.6573 5.34267C18.2581 4.93509 17.7743 4.62013 17.24 4.42C16.73 4.222 16.1493 4.08733 15.298 4.048C14.4447 4.008 14.1733 4 12 4ZM12 5.44C14.1353 5.44 14.39 5.45067 15.2333 5.48733C16.0133 5.524 16.4367 5.65333 16.718 5.764C17.0927 5.90867 17.358 6.082 17.6393 6.36133C17.9187 6.64133 18.092 6.90733 18.2367 7.282C18.346 7.56333 18.4767 7.98667 18.512 8.76667C18.55 9.61067 18.5587 9.864 18.5587 12C18.5587 14.136 18.5487 14.39 18.5093 15.2333C18.4687 16.0133 18.3387 16.4367 18.2287 16.718C18.0985 17.0652 17.894 17.3796 17.6293 17.6393C17.3708 17.9042 17.0565 18.1082 16.7093 18.2367C16.4293 18.346 15.9993 18.4767 15.2193 18.512C14.37 18.55 14.12 18.5587 11.98 18.5587C9.83933 18.5587 9.58933 18.5487 8.74067 18.5093C7.96 18.4687 7.53 18.3387 7.25 18.2287C6.9026 18.1001 6.58845 17.8953 6.33067 17.6293C6.06305 17.3725 5.85781 17.0578 5.73067 16.7093C5.62067 16.4293 5.49133 15.9993 5.45067 15.2193C5.42067 14.3793 5.41 14.12 5.41 11.99C5.41 9.85933 5.42067 9.59933 5.45067 8.74933C5.49133 7.96933 5.62067 7.54 5.73067 7.26C5.87067 6.88 6.05 6.62 6.33067 6.33933C6.61 6.06 6.87067 5.88 7.25 5.74067C7.53 5.63 7.95067 5.5 8.73067 5.46C9.58067 5.43 9.83067 5.42 11.97 5.42L12 5.44ZM12 7.892C11.4605 7.892 10.9263 7.99826 10.4279 8.2047C9.92953 8.41115 9.47667 8.71374 9.09521 9.09521C8.71374 9.47667 8.41115 9.92953 8.2047 10.4279C7.99826 10.9263 7.892 11.4605 7.892 12C7.892 12.5395 7.99826 13.0737 8.2047 13.5721C8.41115 14.0705 8.71374 14.5233 9.09521 14.9048C9.47667 15.2863 9.92953 15.5889 10.4279 15.7953C10.9263 16.0017 11.4605 16.108 12 16.108C13.0895 16.108 14.1344 15.6752 14.9048 14.9048C15.6752 14.1344 16.108 13.0895 16.108 12C16.108 10.9105 15.6752 9.8656 14.9048 9.09521C14.1344 8.32481 13.0895 7.892 12 7.892ZM12 14.6667C10.5267 14.6667 9.33333 13.4733 9.33333 12C9.33333 10.5267 10.5267 9.33333 12 9.33333C13.4733 9.33333 14.6667 10.5267 14.6667 12C14.6667 13.4733 13.4733 14.6667 12 14.6667ZM17.2307 7.73C17.2214 7.97842 17.1162 8.21357 16.9372 8.38605C16.7582 8.55852 16.5193 8.65488 16.2707 8.65488C16.0221 8.65488 15.7832 8.55852 15.6041 8.38605C15.4251 8.21357 15.3199 7.97842 15.3107 7.73C15.3107 7.47539 15.4118 7.23121 15.5918 7.05118C15.7719 6.87114 16.0161 6.77 16.2707 6.77C16.5253 6.77 16.7695 6.87114 16.9495 7.05118C17.1295 7.23121 17.2307 7.47539 17.2307 7.73Z" fill="#2F80ED"></path>
  </symbol>
  <symbol fill="none" xmlns="http://www.w3.org/2000/svg" viewBox="0 0 24 24" id="twit">
    <path d="M20 7.42342C19.4484 7.66396 18.8558 7.82649 18.2328 7.89995C18.8756 7.52145 19.3565 6.92574 19.5858 6.22397C18.9819 6.57697 18.3209 6.82545 17.6317 6.95859C17.1682 6.47158 16.5543 6.14877 15.8852 6.0403C15.2162 5.93183 14.5295 6.04376 13.9317 6.35871C13.334 6.67366 12.8586 7.17401 12.5794 7.78209C12.3002 8.39016 12.2328 9.07193 12.3877 9.72154C11.164 9.66108 9.96694 9.34809 8.87415 8.80288C7.78135 8.25767 6.81726 7.49244 6.04444 6.55683C5.78019 7.0054 5.62825 7.52549 5.62825 8.07938C5.62795 8.578 5.75273 9.069 5.99151 9.50879C6.23029 9.94858 6.57568 10.3236 6.99705 10.6005C6.50837 10.5852 6.03048 10.4552 5.60314 10.2215V10.2605C5.6031 10.9598 5.84892 11.6377 6.2989 12.1789C6.74888 12.7202 7.3753 13.0916 8.07188 13.2302C7.61855 13.3509 7.14327 13.3687 6.68193 13.2822C6.87847 13.8839 7.26129 14.4101 7.77682 14.7871C8.29235 15.1641 8.91477 15.373 9.55695 15.3846C8.46681 16.2268 7.12051 16.6836 5.73461 16.6816C5.48911 16.6816 5.24382 16.6675 5 16.6393C6.40677 17.5294 8.04435 18.0018 9.71681 18C15.3783 18 18.4733 13.3855 18.4733 9.38349C18.4733 9.25347 18.47 9.12215 18.4641 8.99213C19.0661 8.56369 19.5857 8.03315 19.9987 7.42537L20 7.42342Z" fill="#2F80ED"></path>
  </symbol>
  <symbol fill="none" xmlns="http://www.w3.org/2000/svg" viewBox="0 0 24 24" id="skype">
    <path d="M19.4712 13.753C19.5481 13.33 19.5893 12.8976 19.5893 12.4652C19.5893 11.5065 19.4018 10.5759 19.0324 9.70172C18.6761 8.85575 18.1641 8.09625 17.5134 7.44392C16.8682 6.79538 16.1032 6.27884 15.2613 5.92305C14.3874 5.5527 13.4611 5.36471 12.5047 5.36471C12.0546 5.36471 11.6027 5.40795 11.1639 5.49254C10.5567 5.16999 9.88018 5.00091 9.19303 5C8.07352 5 7.01964 5.43802 6.22829 6.23136C5.8378 6.62082 5.52818 7.08402 5.31736 7.59418C5.10653 8.10434 4.99867 8.65133 5.00001 9.20353C5.00001 9.91791 5.18379 10.621 5.52695 11.2414C5.45757 11.6437 5.42006 12.0554 5.42006 12.4652C5.42006 13.424 5.60759 14.3546 5.97701 15.2287C6.3333 16.0747 6.84336 16.8342 7.49407 17.4865C8.14477 18.1389 8.90237 18.6502 9.74622 19.0074C10.6201 19.3777 11.5464 19.5657 12.5028 19.5657C12.9191 19.5657 13.3354 19.5281 13.7442 19.4548C14.3724 19.8101 15.0813 20 15.807 20C16.9265 20 17.9804 19.5639 18.7717 18.7686C19.5649 17.9753 20 16.9188 20 15.7965C20.0019 15.0821 19.8181 14.3771 19.4712 13.753ZM12.5328 16.8154C10.0163 16.8154 8.89112 15.5746 8.89112 14.6459C8.89112 14.1684 9.24179 13.8357 9.72559 13.8357C10.802 13.8357 10.5244 15.3866 12.5328 15.3866C13.5623 15.3866 14.1305 14.8264 14.1305 14.253C14.1305 13.909 13.9617 13.5255 13.2829 13.3582L11.0439 12.798C9.24179 12.3449 8.91362 11.3673 8.91362 10.4499C8.91362 8.54368 10.7045 7.82742 12.3865 7.82742C13.9355 7.82742 15.762 8.68655 15.762 9.82955C15.762 10.3202 15.3382 10.6041 14.8544 10.6041C13.9355 10.6041 14.1043 9.32949 12.2534 9.32949C11.3345 9.32949 10.8264 9.74684 10.8264 10.3428C10.8264 10.9387 11.5521 11.1286 12.1821 11.2733L13.8399 11.6418C15.6551 12.0479 16.1145 13.11 16.1145 14.1102C16.1145 15.6573 14.9275 16.8154 12.5328 16.8154Z" fill="#2F80ED"></path>
  </symbol>
<symbol fill="none" xmlns="http://www.w3.org/2000/svg" viewBox="0 0 24 24" id="web">
    <path fill-rule="evenodd" clip-rule="evenodd" d="M13.8856 18.1168C15.124 16.564 15.812 14.7904 15.9576 12.8H18.344C18.0296 15.3216 16.2528 17.388 13.8856 18.1168ZM5.6552 12.8H8.0424C8.1872 14.7904 8.8752 16.564 10.1136 18.1168C7.7464 17.388 5.9696 15.3216 5.6552 12.8ZM10.1136 5.8832C8.8752 7.4368 8.1872 9.2096 8.0424 11.2H5.6552C5.9696 8.6792 7.7464 6.6128 10.1136 5.8832ZM9.6352 11.2C9.8 9.268 10.576 7.6 12 6.1488C13.4232 7.6 14.1992 9.268 14.3648 11.2H9.6352ZM9.6352 12.8H14.3648C14.1992 14.7328 13.4232 16.4 12 17.8512C10.576 16.4 9.8 14.7328 9.6352 12.8ZM18.344 11.2H15.9576C15.812 9.2096 15.124 7.4368 13.8856 5.8832C16.2528 6.6128 18.0296 8.6792 18.344 11.2ZM12 4C7.5816 4 4 7.5824 4 12C4 16.4184 7.5816 20 12 20C16.4176 20 20 16.4184 20 12C20 7.5824 16.4176 4 12 4Z" fill="#2F80ED"></path>
  </symbol>
  <symbol fill="none" xmlns="http://www.w3.org/2000/svg" viewBox="0 0 24 24" id="email">
    <path d="M11.9993 4C10.7512 4.00021 9.52038 4.29242 8.40536 4.85326C7.29033 5.41411 6.322 6.22803 5.57778 7.22995C4.83356 8.23188 4.3341 9.39401 4.11933 10.6234C3.90456 11.8529 3.98044 13.1155 4.3409 14.3104C4.70137 15.5052 5.33641 16.5992 6.19526 17.5048C7.05412 18.4104 8.11296 19.1025 9.28713 19.5258C10.4613 19.9491 11.7182 20.0918 12.9574 19.9426C14.1966 19.7933 15.3837 19.3563 16.4238 18.6663C16.5216 18.602 16.6058 18.5189 16.6715 18.4219C16.7372 18.325 16.7831 18.216 16.8065 18.1012C16.8299 17.9865 16.8304 17.8682 16.808 17.7533C16.7855 17.6383 16.7406 17.5289 16.6757 17.4314C16.6109 17.3339 16.5274 17.2501 16.4301 17.185C16.3328 17.1198 16.2235 17.0745 16.1087 17.0517C15.9938 17.0289 15.8755 17.029 15.7607 17.052C15.6458 17.075 15.5367 17.1205 15.4395 17.1859C14.2841 17.9524 12.9059 18.3111 11.5234 18.2052C10.1409 18.0994 8.83343 17.5349 7.80832 16.6014C6.78322 15.6678 6.09924 14.4187 5.86491 13.0523C5.63059 11.6858 5.85933 10.2803 6.51485 9.05858C7.17037 7.83691 8.21512 6.86911 9.48334 6.30874C10.7516 5.74838 12.1706 5.62754 13.5153 5.9654C14.86 6.30326 16.0534 7.08046 16.9061 8.1737C17.7588 9.26694 18.2219 10.6136 18.2221 12C18.2221 12.688 18.0987 13.2654 17.8746 13.6259C17.6792 13.94 17.4287 14.0741 17.0368 14.0741C16.6449 14.0741 16.3944 13.94 16.1991 13.6259C15.9749 13.2654 15.8515 12.688 15.8515 12V9.03704C15.8515 8.82375 15.7747 8.6176 15.6353 8.4562C15.4958 8.2948 15.303 8.18892 15.092 8.15789C14.8809 8.12685 14.6658 8.17272 14.4858 8.28714C14.3058 8.40155 14.1729 8.57688 14.1114 8.78111C13.5002 8.37937 12.7873 8.15991 12.056 8.14839C11.3246 8.13688 10.6051 8.33379 9.98159 8.71609C9.35806 9.09839 8.85625 9.6503 8.53484 10.3073C8.21344 10.9642 8.08572 11.6991 8.16663 12.426C8.24753 13.1529 8.53371 13.8417 8.99171 14.4119C9.4497 14.9822 10.0606 15.4102 10.7529 15.6461C11.4453 15.882 12.1905 15.9159 12.9014 15.7439C13.6123 15.5718 14.2595 15.201 14.7674 14.6747C15.2812 15.43 16.06 15.8519 17.0368 15.8519C18.8646 15.8519 20 14.3759 20 12C19.9976 9.879 19.1539 7.84556 17.654 6.34579C16.1541 4.84601 14.1205 4.00239 11.9993 4ZM11.9993 14.0741C11.5891 14.0741 11.188 13.9524 10.8469 13.7245C10.5058 13.4966 10.24 13.1727 10.083 12.7937C9.92598 12.4147 9.8849 11.9977 9.96493 11.5954C10.045 11.193 10.2425 10.8235 10.5326 10.5334C10.8227 10.2433 11.1923 10.0458 11.5947 9.96578C11.997 9.88575 12.4141 9.92682 12.7931 10.0838C13.1721 10.2408 13.4961 10.5066 13.724 10.8477C13.9519 11.1888 14.0736 11.5898 14.0736 12C14.073 12.5499 13.8542 13.0771 13.4654 13.4659C13.0765 13.8548 12.5493 14.0735 11.9993 14.0741Z" fill="#2F80ED"></path>
  </symbol>
  <symbol fill="none" xmlns="http://www.w3.org/2000/svg" viewBox="0 0 24 24" id="med">
    <path d="M18.8027 7.41015L20 6.25336V6H15.8535L12.8984 13.4318L9.53711 6H5.18945V6.25336L6.58789 7.95417C6.72461 8.07987 6.79492 8.26448 6.77734 8.4491V15.1326C6.82031 15.3741 6.74414 15.6196 6.57617 15.7944L5 17.725V17.9745H9.46484V17.7211L7.89062 15.7964C7.80628 15.7103 7.74284 15.6058 7.70523 15.491C7.66763 15.3762 7.65688 15.2542 7.67383 15.1345V9.35254L11.5938 17.9784H12.0488L15.4199 9.35254V16.2246C15.4199 16.4052 15.4199 16.4426 15.3027 16.5624L14.0898 17.7466V18H19.9727V17.7466L18.8027 16.5899C18.7012 16.5113 18.6484 16.3797 18.6699 16.252V7.74795C18.6598 7.68484 18.6668 7.62015 18.6902 7.5607C18.7136 7.50126 18.7524 7.44924 18.8027 7.41015Z" fill="#2F80ED"></path>
  </symbol>
</svg>