<svg width="0" height="0" class="hidden">
  <symbol fill="none" xmlns="http://www.w3.org/2000/svg" viewBox="0 0 24 24" id="Flask">
    <path fill-rule="evenodd" clip-rule="evenodd" d="M14.495 3.25H8.5a.75.75 0 000 1.5h.26v5.087a7.25 7.25 0 01-1.255 4.078L4.41 18.463a1.855 1.855 0 001.327 2.887l.086.01.017.002c4.093.46 8.225.46 12.319 0l.017-.002.086-.01a1.855 1.855 0 001.327-2.887l-3.094-4.548a7.25 7.25 0 01-1.256-4.078V4.75h.26a.75.75 0 000-1.5h-1.005zm-4.666 9.3h4.343a8.75 8.75 0 01-.432-2.713V4.75h-3.48v5.087a8.75 8.75 0 01-.431 2.713zM10 17a1 1 0 100 2 1 1 0 000-2zm2-1a1 1 0 112 0 1 1 0 01-2 0z" fill="#000"></path>
  </symbol>
  <symbol fill="none" xmlns="http://www.w3.org/2000/svg" viewBox="0 0 14 15" id="ressmall">
    <path d="M0 12.06v1.082c0 .686.493 1.27 1.165 1.381a35.94 35.94 0 0011.67 0A1.396 1.396 0 0014 13.143V12.06C14 9.973 12.461 9 10.5 9c-.449 0-1.082.36-1.5.5a6.298 6.298 0 01-4 0C4.602 9.354 3.932 9 3.5 9 1.539 9 0 9.973 0 12.06zM10 3.5C10 5.433 9.5 7 7 7S4 5.433 4 3.5 5.343 0 7 0s3 1.567 3 3.5z" fill="#fff"></path>
  </symbol>
  <symbol fill="none" xmlns="http://www.w3.org/2000/svg" viewBox="0 0 18 15" id="pc">
    <path fill-rule="evenodd" clip-rule="evenodd" d="M9 0l6.54.181c1.155.033 2.11.893 2.242 2.02.29 2.495.29 5.015 0 7.51-.131 1.127-1.087 1.988-2.243 2.02L10 12v2h3.495c.373 0 .505.134.505.5s-.132.5-.505.5h-8.99C4.132 15 4 14.866 4 14.5s.132-.5.505-.5H8v-2l-5.54-.27C1.306 11.7.35 10.839.219 9.71a32.42 32.42 0 010-7.509C.35 1.074 1.305.214 2.461.181L9 0zM2.5 9c-.372 0-.468.12-.468.485 0 .366.096.515.468.515h13.04c.372 0 .46-.15.46-.515S15.912 9 15.54 9H2.5z" fill="#fff"></path>
  </symbol>
  <symbol fill="none" xmlns="http://www.w3.org/2000/svg" viewBox="0 0 20 20" id="person">
    <path fill-rule="evenodd" clip-rule="evenodd" d="M12.091.219C11.513.096 11 .562 11 1.154V8a1 1 0 001 1h6.846c.592 0 1.058-.513.935-1.091a10.013 10.013 0 00-7.69-7.69zm-4.182 0C8.487.096 9 .562 9 1.154V10a1 1 0 00.553.894l7.91 3.956c.53.265.718.933.348 1.395A9.981 9.981 0 0110 20C4.477 20 0 15.523 0 10 0 5.194 3.39 1.18 7.909.219zM18.36 13.062c.53.265 1.176.015 1.324-.558.035-.137.068-.275.097-.413.123-.579-.343-1.091-.935-1.091h-3.763c-.21 0-.278.284-.09.379l3.367 1.683z" fill="#fff"></path>
  </symbol>
  <symbol fill="none" xmlns="http://www.w3.org/2000/svg" viewBox="0 0 12 16" id="list">
    <path fill-rule="evenodd" clip-rule="evenodd" d="M7.742.205A.2.2 0 007.548 0H2.13C.953 0 0 1.01 0 2.256v11.488C0 14.99.953 16 2.129 16h7.742C11.047 16 12 14.99 12 13.744V5.659a.2.2 0 00-.194-.205H8.323c-.321 0-.581-.276-.581-.615V.205zm.58 8c.321 0 .581.276.581.616 0 .34-.26.615-.58.615H3.677c-.32 0-.58-.276-.58-.615 0-.34.26-.616.58-.616h4.646zm0 3.282c.321 0 .581.276.581.616 0 .34-.26.615-.58.615H3.677c-.32 0-.58-.276-.58-.615 0-.34.26-.616.58-.616h4.646z" fill="#fff"></path>
    <path d="M8.903.471c0-.151.15-.247.26-.152.094.08.178.174.25.28l2.333 3.444a.115.115 0 01-.096.18H9.097a.2.2 0 01-.194-.205V.471z" fill="#fff"></path>
  </symbol>
  <symbol fill="none" xmlns="http://www.w3.org/2000/svg" viewBox="0 0 14 13" id="stopk">
    <path d="M7.759.167a1.85 1.85 0 00-1.53-.004c-1.945.94-3.708 2.018-5.251 3.211-.206.16-.343.382-.34.636.002.254.141.474.347.631 1.53 1.172 3.296 2.25 5.206 3.183a1.85 1.85 0 001.53.004c1.945-.94 3.708-2.017 5.251-3.21.206-.16.342-.382.34-.637-.002-.254-.141-.474-.347-.63C11.434 2.178 9.67 1.1 7.76.166z" fill="#fff"></path>
    <path d="M13.734 7.332a.51.51 0 00.18-.73.59.59 0 00-.78-.168L8.526 9.126c-.41.24-.968.373-1.551.373-.584 0-1.141-.133-1.552-.373L.866 6.465a.59.59 0 00-.78.168.51.51 0 00.18.73l4.558 2.661c.625.365 1.4.534 2.15.534s1.527-.169 2.152-.534l4.608-2.692z" fill="#fff"></path>
    <path d="M13.734 9.983a.51.51 0 00.18-.73.59.59 0 00-.78-.168l-3.99 2.331c-.583.34-1.363.525-2.17.525-.805 0-1.585-.184-2.169-.525l-3.94-2.3a.59.59 0 00-.78.168.51.51 0 00.181.73l3.94 2.3c.798.467 1.796.686 2.769.686.972 0 1.97-.22 2.768-.686l3.99-2.331z" fill="#fff"></path>
  </symbol>
  <symbol fill="none" xmlns="http://www.w3.org/2000/svg" viewBox="0 0 16 18" id="gai">
    <path fill-rule="evenodd" clip-rule="evenodd" d="M8.98.552a2 2 0 00-1.96 0l-6 3.375A2 2 0 000 5.67v6.66a2 2 0 001.02 1.743l6 3.375a2 2 0 001.96 0l6-3.375A2 2 0 0016 12.33V5.67a2 2 0 00-1.02-1.743l-6-3.375zM8 13a4 4 0 100-8 4 4 0 000 8zm2-4a2 2 0 11-4 0 2 2 0 014 0z" fill="#fff"></path>
  </symbol>
  <symbol fill="none" xmlns="http://www.w3.org/2000/svg" viewBox="0 0 28 17" id="group">
    <path d="M23.917 4.103C23.917 1.836 22.089 0 19.833 0c-2.256 0-4.083 1.836-4.083 4.103 0 2.267 1.827 4.103 4.083 4.103 2.256 0 4.084-1.836 4.084-4.103zm-4.084 5.862c2.883 0 8.167 1.005 8.167 5.024 0 1.758-.48 2.01-1.441 2.01L18.38 17c.19-.572.287-1.244.287-2.011 0-1.98-.733-3.528-1.95-4.682a14.81 14.81 0 013.116-.342zm-11.666 0c2.882 0 8.166 1.005 8.166 5.024 0 1.758-.48 2.01-1.44 2.01H1.44c-.96 0-1.441-.252-1.441-2.01 0-4.02 5.284-5.024 8.167-5.024zm0-9.965c2.256 0 4.083 1.836 4.083 4.103 0 2.267-1.827 4.103-4.083 4.103-2.256 0-4.084-1.836-4.084-4.103C4.083 1.836 5.911 0 8.167 0z" fill="#fff"></path>
  </symbol>
  <symbol fill="none" xmlns="http://www.w3.org/2000/svg" viewBox="0 0 16 23" id="fire">
    <path d="M8.074.072a.78.78 0 00-.899.18.983.983 0 00-.243.89c.117.531.18 1.085.18 1.653 0 1.298-.322 2.207-.875 2.96-.562.766-1.376 1.39-2.403 2.093a.298.298 0 00-.045.038l-.125.128A8.172 8.172 0 000 14.858C0 19.355 3.582 23 8 23s8-3.645 8-8.142c0-1.32-.309-2.568-.858-3.672a.294.294 0 00-.489-.06l-.245.291c-1.041 1.238-1.881 2.237-3.604 2.683-.073.02-.118.005-.15-.015a.293.293 0 01-.109-.15.503.503 0 01.088-.5c.921-1.016 1.576-2.396 1.81-4.358.437-3.677-1.205-7.593-4.37-9.005z" fill="#fff"></path>
  </symbol>
  <symbol fill="none" xmlns="http://www.w3.org/2000/svg" viewBox="0 0 8 10" id="doll">
    <path d="M7 3C7.55228 3 8 2.55228 8 2C8 1.44772 7.55228 1 7 1V3ZM1 7C0.447715 7 0 7.44772 0 8C0 8.55228 0.447715 9 1 9V7ZM5 1C5 0.447715 4.55228 0 4 0C3.44772 0 3 0.447715 3 1H5ZM3 9C3 9.55229 3.44772 10 4 10C4.55228 10 5 9.55229 5 9H3ZM5 8C5 7.44772 4.55228 7 4 7C3.44772 7 3 7.44772 3 8H5ZM0 3V4H2V3H0ZM2 6H6V4H2V6ZM6 6V7H8V6H6ZM6 7H1V9H6V7ZM7 1H4V3H7V1ZM4 1H2V3H4V1ZM5 2V1H3V2H5ZM5 9V8H3V9H5ZM6 7V9C7.10457 9 8 8.10457 8 7H6ZM6 6H8C8 4.89543 7.10457 4 6 4V6ZM0 4C0 5.10457 0.895431 6 2 6V4H0ZM2 3H2V1C0.89543 1 0 1.89543 0 3H2Z" fill="black"></path>
  </symbol>
  <symbol fill="none" xmlns="http://www.w3.org/2000/svg" viewBox="0 0 12 7" id="btn-arr">
    <path d="M1.70711 0.292893C1.31658 -0.0976311 0.683417 -0.0976311 0.292893 0.292893C-0.0976311 0.683417 -0.0976311 1.31658 0.292893 1.70711L1.70711 0.292893ZM6 6L5.29289 6.70711C5.68342 7.09763 6.31658 7.09763 6.70711 6.70711L6 6ZM11.7071 1.70711C12.0976 1.31658 12.0976 0.683417 11.7071 0.292893C11.3166 -0.0976311 10.6834 -0.0976311 10.2929 0.292893L11.7071 1.70711ZM0.292893 1.70711L5.29289 6.70711L6.70711 5.29289L1.70711 0.292893L0.292893 1.70711ZM6.70711 6.70711L11.7071 1.70711L10.2929 0.292893L5.29289 5.29289L6.70711 6.70711Z" fill="black"></path>
  </symbol>
  <symbol fill="none" xmlns="http://www.w3.org/2000/svg" viewBox="0 0 13 14" id="copras">
    <rect x="5" width="3" height="14" rx="1" fill="black"></rect>
    <rect y="8" width="3" height="6" rx="1" fill="black"></rect>
    <rect x="10" y="5" width="3" height="9" rx="1" fill="black"></rect>
  </symbol>
  <symbol fill="none" xmlns="http://www.w3.org/2000/svg" viewBox="0 0 8 8" id="btn-arr-right">
    <path d="M4.70711 0.292893C4.31658 -0.0976311 3.68342 -0.0976311 3.29289 0.292893C2.90237 0.683417 2.90237 1.31658 3.29289 1.70711L4.70711 0.292893ZM7 4L7.70711 4.70711C8.09763 4.31658 8.09763 3.68342 7.70711 3.29289L7 4ZM3.29289 6.29289C2.90237 6.68342 2.90237 7.31658 3.29289 7.70711C3.68342 8.09763 4.31658 8.09763 4.70711 7.70711L3.29289 6.29289ZM1 3C0.447715 3 0 3.44772 0 4C0 4.55228 0.447715 5 1 5V3ZM3.29289 1.70711L6.29289 4.70711L7.70711 3.29289L4.70711 0.292893L3.29289 1.70711ZM6.29289 3.29289L3.29289 6.29289L4.70711 7.70711L7.70711 4.70711L6.29289 3.29289ZM7 3H1V5H7V3Z" fill="black"></path>
  </symbol>
  <symbol fill="none" xmlns="http://www.w3.org/2000/svg" viewBox="0 0 22 27" id="book">
    <path fill-rule="evenodd" clip-rule="evenodd" d="M0 2.13699C0 0.956761 0.923413 0 2.0625 0H19.9375C21.0766 0 22 0.956761 22 2.13699V7.86306C22 9.04329 21.0766 10 19.9375 10H2.0625C0.923413 10 0 9.04329 0 7.86306V2.13699ZM0 14.137C0 12.9568 0.923413 12 2.0625 12H19.9375C21.0766 12 22 12.9568 22 14.137V19.8631C22 21.0433 21.0766 22 19.9375 22H12V25H20.6974C21.2669 25 21.7286 25.3414 21.7286 25.9316C21.7286 26.5217 21.2669 27 20.6974 27H1.44738C0.877841 27 0.416134 26.5217 0.416134 25.9316C0.416134 25.3414 0.877841 25 1.44738 25H10V22H2.0625C0.923413 22 0 21.0433 0 19.8631V14.137ZM7 5C7 6.10457 6.10457 7 5 7C3.89543 7 3 6.10457 3 5C3 3.89543 3.89543 3 5 3C6.10457 3 7 3.89543 7 5ZM5 19C6.10457 19 7 18.1046 7 17C7 15.8954 6.10457 15 5 15C3.89543 15 3 15.8954 3 17C3 18.1046 3.89543 19 5 19ZM13 5C13 6.10457 12.1046 7 11 7C9.89543 7 9 6.10457 9 5C9 3.89543 9.89543 3 11 3C12.1046 3 13 3.89543 13 5ZM11 19C12.1046 19 13 18.1046 13 17C13 15.8954 12.1046 15 11 15C9.89543 15 9 15.8954 9 17C9 18.1046 9.89543 19 11 19Z" fill="white"></path>
  </symbol>
  <symbol fill="none" xmlns="http://www.w3.org/2000/svg" viewBox="0 0 25 23" id="hat">
    <path fill-rule="evenodd" clip-rule="evenodd" d="M11.8927 1.80315C8.5585 -0.231286 4.48081 -0.563563 0.870631 0.905002C0.3448 1.1189 0 1.63682 0 2.21276V16.3278C0 17.2733 0.939001 17.9198 1.80222 17.5687C4.75858 16.3661 8.0978 16.6382 10.8281 18.3042L12.1797 18.9115C12.2827 18.9744 12.393 19.0019 12.5 19C12.607 19.0019 12.7173 18.9744 12.8203 18.9115L14.1719 18.3042C16.9022 16.6382 20.2414 16.3661 23.1978 17.5687C24.061 17.9198 25 17.2733 25 16.3278V2.21276C25 1.63682 24.6552 1.1189 24.1294 0.905002C20.5192 -0.563563 16.4415 -0.231286 13.1073 1.80315L12.5 2.17373L11.8927 1.80315ZM14 4.69567C14 4.19419 13.1848 3.78766 12.5 3.78766C11.8152 3.78766 11 4.19419 11 4.69567V16.197C11 16.6985 11.8152 17.105 12.5 17.105C13.1848 17.105 14 16.6985 14 16.197V4.69567Z" fill="white"></path>
    <path d="M1.45814 19.8802C3.86749 18.4509 6.84679 18.4509 9.25614 19.8802L10.5505 20.648C11.7552 21.3627 13.2448 21.3627 14.4495 20.648L15.7439 19.8802C18.1532 18.4509 21.1325 18.4509 23.5419 19.8802L23.6642 19.9527C24.0901 20.2054 24.234 20.7614 23.9855 21.1945C23.7371 21.6277 23.1903 21.774 22.7644 21.5213L22.6421 21.4488C20.7887 20.3493 18.497 20.3493 16.6436 21.4488L15.3493 22.2166C13.5886 23.2611 11.4114 23.2611 9.65073 22.2166L8.35637 21.4488C6.50303 20.3493 4.21126 20.3493 2.35791 21.4488L2.2356 21.5213C1.80966 21.774 1.26295 21.6277 1.01448 21.1945C0.766019 20.7614 0.90989 20.2054 1.33583 19.9527L1.45814 19.8802Z" fill="white"></path>
  </symbol>
  <symbol fill="none" xmlns="http://www.w3.org/2000/svg" viewBox="0 0 25 23" id="serv">
    <path fill-rule="evenodd" clip-rule="evenodd" d="M11.8927 1.80315C8.5585 -0.231286 4.48081 -0.563563 0.870631 0.905002C0.3448 1.1189 0 1.63682 0 2.21276V16.3278C0 17.2733 0.939001 17.9198 1.80222 17.5687C4.75858 16.3661 8.0978 16.6382 10.8281 18.3042L12.1797 18.9115C12.2827 18.9744 12.393 19.0019 12.5 19C12.607 19.0019 12.7173 18.9744 12.8203 18.9115L14.1719 18.3042C16.9022 16.6382 20.2414 16.3661 23.1978 17.5687C24.061 17.9198 25 17.2733 25 16.3278V2.21276C25 1.63682 24.6552 1.1189 24.1294 0.905002C20.5192 -0.563563 16.4415 -0.231286 13.1073 1.80315L12.5 2.17373L11.8927 1.80315ZM14 4.69567C14 4.19419 13.1848 3.78766 12.5 3.78766C11.8152 3.78766 11 4.19419 11 4.69567V16.197C11 16.6985 11.8152 17.105 12.5 17.105C13.1848 17.105 14 16.6985 14 16.197V4.69567Z" fill="white"></path>
    <path d="M1.45814 19.8802C3.86749 18.4509 6.84679 18.4509 9.25614 19.8802L10.5505 20.648C11.7552 21.3627 13.2448 21.3627 14.4495 20.648L15.7439 19.8802C18.1532 18.4509 21.1325 18.4509 23.5419 19.8802L23.6642 19.9527C24.0901 20.2054 24.234 20.7614 23.9855 21.1945C23.7371 21.6277 23.1903 21.774 22.7644 21.5213L22.6421 21.4488C20.7887 20.3493 18.497 20.3493 16.6436 21.4488L15.3493 22.2166C13.5886 23.2611 11.4114 23.2611 9.65073 22.2166L8.35637 21.4488C6.50303 20.3493 4.21126 20.3493 2.35791 21.4488L2.2356 21.5213C1.80966 21.774 1.26295 21.6277 1.01448 21.1945C0.766019 20.7614 0.90989 20.2054 1.33583 19.9527L1.45814 19.8802Z" fill="white"></path>
  </symbol>
  <symbol fill="none" xmlns="http://www.w3.org/2000/svg" viewBox="0 0 5 8" id="btn-arrow">
    <path d="M1 1L4 4L1 7" stroke="black" stroke-width="2" stroke-linecap="round" stroke-linejoin="round"></path>
  </symbol>
  <symbol fill="none" xmlns="http://www.w3.org/2000/svg" viewBox="0 0 56 56" id="tools1">
    <rect width="56" height="56" rx="10" fill="white" fill-opacity="0.1"></rect>
    <rect x="46" y="23" width="10" height="10" rx="2" transform="rotate(90 46 23)" fill="white"></rect>
    <rect x="20" y="23" width="10" height="10" rx="2" transform="rotate(90 20 23)" fill="white"></rect>
    <rect x="33" y="10" width="10" height="10" rx="2" transform="rotate(90 33 10)" fill="white"></rect>
    <rect x="33" y="36" width="10" height="10" rx="2" transform="rotate(90 33 36)" fill="white"></rect>
    <path d="M15 21V28V40C15 40.5523 15.4477 41 16 41H35M21 15H39C40.1046 15 41 15.8954 41 17V35" stroke="white" stroke-width="2" stroke-linecap="round" stroke-linejoin="round"></path>
  </symbol>
  <symbol fill="none" xmlns="http://www.w3.org/2000/svg" viewBox="0 0 56 56" id="tools2">
    <rect width="56" height="56" rx="10" fill="white" fill-opacity="0.1"></rect>
    <rect x="27" y="23" width="16" height="10" rx="2" fill="white"></rect>
    <rect x="27" y="10" width="10" height="10" rx="2" transform="rotate(90 27 10)" fill="white"></rect>
    <rect x="27" y="36" width="10" height="10" rx="2" transform="rotate(90 27 36)" fill="white"></rect>
    <path d="M27 28H11M35 23V17C35 15.8954 34.1046 15 33 15H27M45 28H43M35 33V39C35 40.1046 34.1046 41 33 41H27" stroke="white" stroke-width="2" stroke-linecap="round" stroke-linejoin="round"></path>
  </symbol>
</svg>