<svg width="0" height="0" class="hidden">
  <symbol fill="none" xmlns="http://www.w3.org/2000/svg" viewBox="0 0 24 24" id="Flask">
    <path fill-rule="evenodd" clip-rule="evenodd" d="M14.495 3.25H8.5a.75.75 0 000 1.5h.26v5.087a7.25 7.25 0 01-1.255 4.078L4.41 18.463a1.855 1.855 0 001.327 2.887l.086.01.017.002c4.093.46 8.225.46 12.319 0l.017-.002.086-.01a1.855 1.855 0 001.327-2.887l-3.094-4.548a7.25 7.25 0 01-1.256-4.078V4.75h.26a.75.75 0 000-1.5h-1.005zm-4.666 9.3h4.343a8.75 8.75 0 01-.432-2.713V4.75h-3.48v5.087a8.75 8.75 0 01-.431 2.713zM10 17a1 1 0 100 2 1 1 0 000-2zm2-1a1 1 0 112 0 1 1 0 01-2 0z" fill="#000"></path>
  </symbol>
  <symbol fill="none" xmlns="http://www.w3.org/2000/svg" viewBox="0 0 14 15" id="ressmall">
    <path d="M0 12.06v1.082c0 .686.493 1.27 1.165 1.381a35.94 35.94 0 0011.67 0A1.396 1.396 0 0014 13.143V12.06C14 9.973 12.461 9 10.5 9c-.449 0-1.082.36-1.5.5a6.298 6.298 0 01-4 0C4.602 9.354 3.932 9 3.5 9 1.539 9 0 9.973 0 12.06zM10 3.5C10 5.433 9.5 7 7 7S4 5.433 4 3.5 5.343 0 7 0s3 1.567 3 3.5z" fill="#fff"></path>
  </symbol>
  <symbol fill="none" xmlns="http://www.w3.org/2000/svg" viewBox="0 0 18 15" id="pc">
    <path fill-rule="evenodd" clip-rule="evenodd" d="M9 0l6.54.181c1.155.033 2.11.893 2.242 2.02.29 2.495.29 5.015 0 7.51-.131 1.127-1.087 1.988-2.243 2.02L10 12v2h3.495c.373 0 .505.134.505.5s-.132.5-.505.5h-8.99C4.132 15 4 14.866 4 14.5s.132-.5.505-.5H8v-2l-5.54-.27C1.306 11.7.35 10.839.219 9.71a32.42 32.42 0 010-7.509C.35 1.074 1.305.214 2.461.181L9 0zM2.5 9c-.372 0-.468.12-.468.485 0 .366.096.515.468.515h13.04c.372 0 .46-.15.46-.515S15.912 9 15.54 9H2.5z" fill="#fff"></path>
  </symbol>
  <symbol fill="none" xmlns="http://www.w3.org/2000/svg" viewBox="0 0 20 20" id="person">
    <path fill-rule="evenodd" clip-rule="evenodd" d="M12.091.219C11.513.096 11 .562 11 1.154V8a1 1 0 001 1h6.846c.592 0 1.058-.513.935-1.091a10.013 10.013 0 00-7.69-7.69zm-4.182 0C8.487.096 9 .562 9 1.154V10a1 1 0 00.553.894l7.91 3.956c.53.265.718.933.348 1.395A9.981 9.981 0 0110 20C4.477 20 0 15.523 0 10 0 5.194 3.39 1.18 7.909.219zM18.36 13.062c.53.265 1.176.015 1.324-.558.035-.137.068-.275.097-.413.123-.579-.343-1.091-.935-1.091h-3.763c-.21 0-.278.284-.09.379l3.367 1.683z" fill="#fff"></path>
  </symbol>
</svg>