<svg width="0" height="0" class="hidden">
  <symbol fill="none" xmlns="http://www.w3.org/2000/svg" viewBox="0 0 24 24" id="Flask">
    <path fill-rule="evenodd" clip-rule="evenodd" d="M14.495 3.25H8.5a.75.75 0 000 1.5h.26v5.087a7.25 7.25 0 01-1.255 4.078L4.41 18.463a1.855 1.855 0 001.327 2.887l.086.01.017.002c4.093.46 8.225.46 12.319 0l.017-.002.086-.01a1.855 1.855 0 001.327-2.887l-3.094-4.548a7.25 7.25 0 01-1.256-4.078V4.75h.26a.75.75 0 000-1.5h-1.005zm-4.666 9.3h4.343a8.75 8.75 0 01-.432-2.713V4.75h-3.48v5.087a8.75 8.75 0 01-.431 2.713zM10 17a1 1 0 100 2 1 1 0 000-2zm2-1a1 1 0 112 0 1 1 0 01-2 0z" fill="#000"></path>
  </symbol>
  <symbol fill="none" xmlns="http://www.w3.org/2000/svg" viewBox="0 0 14 15" id="ressmall">
    <path d="M0 12.06v1.082c0 .686.493 1.27 1.165 1.381a35.94 35.94 0 0011.67 0A1.396 1.396 0 0014 13.143V12.06C14 9.973 12.461 9 10.5 9c-.449 0-1.082.36-1.5.5a6.298 6.298 0 01-4 0C4.602 9.354 3.932 9 3.5 9 1.539 9 0 9.973 0 12.06zM10 3.5C10 5.433 9.5 7 7 7S4 5.433 4 3.5 5.343 0 7 0s3 1.567 3 3.5z" fill="#fff"></path>
  </symbol>
  <symbol fill="none" xmlns="http://www.w3.org/2000/svg" viewBox="0 0 18 15" id="pc">
    <path fill-rule="evenodd" clip-rule="evenodd" d="M9 0l6.54.181c1.155.033 2.11.893 2.242 2.02.29 2.495.29 5.015 0 7.51-.131 1.127-1.087 1.988-2.243 2.02L10 12v2h3.495c.373 0 .505.134.505.5s-.132.5-.505.5h-8.99C4.132 15 4 14.866 4 14.5s.132-.5.505-.5H8v-2l-5.54-.27C1.306 11.7.35 10.839.219 9.71a32.42 32.42 0 010-7.509C.35 1.074 1.305.214 2.461.181L9 0zM2.5 9c-.372 0-.468.12-.468.485 0 .366.096.515.468.515h13.04c.372 0 .46-.15.46-.515S15.912 9 15.54 9H2.5z" fill="#fff"></path>
  </symbol>
  <symbol fill="none" xmlns="http://www.w3.org/2000/svg" viewBox="0 0 20 20" id="person">
    <path fill-rule="evenodd" clip-rule="evenodd" d="M12.091.219C11.513.096 11 .562 11 1.154V8a1 1 0 001 1h6.846c.592 0 1.058-.513.935-1.091a10.013 10.013 0 00-7.69-7.69zm-4.182 0C8.487.096 9 .562 9 1.154V10a1 1 0 00.553.894l7.91 3.956c.53.265.718.933.348 1.395A9.981 9.981 0 0110 20C4.477 20 0 15.523 0 10 0 5.194 3.39 1.18 7.909.219zM18.36 13.062c.53.265 1.176.015 1.324-.558.035-.137.068-.275.097-.413.123-.579-.343-1.091-.935-1.091h-3.763c-.21 0-.278.284-.09.379l3.367 1.683z" fill="#fff"></path>
  </symbol>
  <symbol fill="none" xmlns="http://www.w3.org/2000/svg" viewBox="0 0 12 16" id="list">
    <path fill-rule="evenodd" clip-rule="evenodd" d="M7.742.205A.2.2 0 007.548 0H2.13C.953 0 0 1.01 0 2.256v11.488C0 14.99.953 16 2.129 16h7.742C11.047 16 12 14.99 12 13.744V5.659a.2.2 0 00-.194-.205H8.323c-.321 0-.581-.276-.581-.615V.205zm.58 8c.321 0 .581.276.581.616 0 .34-.26.615-.58.615H3.677c-.32 0-.58-.276-.58-.615 0-.34.26-.616.58-.616h4.646zm0 3.282c.321 0 .581.276.581.616 0 .34-.26.615-.58.615H3.677c-.32 0-.58-.276-.58-.615 0-.34.26-.616.58-.616h4.646z" fill="#fff"></path>
    <path d="M8.903.471c0-.151.15-.247.26-.152.094.08.178.174.25.28l2.333 3.444a.115.115 0 01-.096.18H9.097a.2.2 0 01-.194-.205V.471z" fill="#fff"></path>
  </symbol>
  <symbol fill="none" xmlns="http://www.w3.org/2000/svg" viewBox="0 0 14 13" id="stopk">
    <path d="M7.759.167a1.85 1.85 0 00-1.53-.004c-1.945.94-3.708 2.018-5.251 3.211-.206.16-.343.382-.34.636.002.254.141.474.347.631 1.53 1.172 3.296 2.25 5.206 3.183a1.85 1.85 0 001.53.004c1.945-.94 3.708-2.017 5.251-3.21.206-.16.342-.382.34-.637-.002-.254-.141-.474-.347-.63C11.434 2.178 9.67 1.1 7.76.166z" fill="#fff"></path>
    <path d="M13.734 7.332a.51.51 0 00.18-.73.59.59 0 00-.78-.168L8.526 9.126c-.41.24-.968.373-1.551.373-.584 0-1.141-.133-1.552-.373L.866 6.465a.59.59 0 00-.78.168.51.51 0 00.18.73l4.558 2.661c.625.365 1.4.534 2.15.534s1.527-.169 2.152-.534l4.608-2.692z" fill="#fff"></path>
    <path d="M13.734 9.983a.51.51 0 00.18-.73.59.59 0 00-.78-.168l-3.99 2.331c-.583.34-1.363.525-2.17.525-.805 0-1.585-.184-2.169-.525l-3.94-2.3a.59.59 0 00-.78.168.51.51 0 00.181.73l3.94 2.3c.798.467 1.796.686 2.769.686.972 0 1.97-.22 2.768-.686l3.99-2.331z" fill="#fff"></path>
  </symbol>
  <symbol fill="none" xmlns="http://www.w3.org/2000/svg" viewBox="0 0 16 18" id="gai">
    <path fill-rule="evenodd" clip-rule="evenodd" d="M8.98.552a2 2 0 00-1.96 0l-6 3.375A2 2 0 000 5.67v6.66a2 2 0 001.02 1.743l6 3.375a2 2 0 001.96 0l6-3.375A2 2 0 0016 12.33V5.67a2 2 0 00-1.02-1.743l-6-3.375zM8 13a4 4 0 100-8 4 4 0 000 8zm2-4a2 2 0 11-4 0 2 2 0 014 0z" fill="#fff"></path>
  </symbol>
  <symbol fill="none" xmlns="http://www.w3.org/2000/svg" viewBox="0 0 28 17" id="group">
    <path d="M23.917 4.103C23.917 1.836 22.089 0 19.833 0c-2.256 0-4.083 1.836-4.083 4.103 0 2.267 1.827 4.103 4.083 4.103 2.256 0 4.084-1.836 4.084-4.103zm-4.084 5.862c2.883 0 8.167 1.005 8.167 5.024 0 1.758-.48 2.01-1.441 2.01L18.38 17c.19-.572.287-1.244.287-2.011 0-1.98-.733-3.528-1.95-4.682a14.81 14.81 0 013.116-.342zm-11.666 0c2.882 0 8.166 1.005 8.166 5.024 0 1.758-.48 2.01-1.44 2.01H1.44c-.96 0-1.441-.252-1.441-2.01 0-4.02 5.284-5.024 8.167-5.024zm0-9.965c2.256 0 4.083 1.836 4.083 4.103 0 2.267-1.827 4.103-4.083 4.103-2.256 0-4.084-1.836-4.084-4.103C4.083 1.836 5.911 0 8.167 0z" fill="#fff"></path>
  </symbol>
  <symbol fill="none" xmlns="http://www.w3.org/2000/svg" viewBox="0 0 16 23" id="fire">
    <path d="M8.074.072a.78.78 0 00-.899.18.983.983 0 00-.243.89c.117.531.18 1.085.18 1.653 0 1.298-.322 2.207-.875 2.96-.562.766-1.376 1.39-2.403 2.093a.298.298 0 00-.045.038l-.125.128A8.172 8.172 0 000 14.858C0 19.355 3.582 23 8 23s8-3.645 8-8.142c0-1.32-.309-2.568-.858-3.672a.294.294 0 00-.489-.06l-.245.291c-1.041 1.238-1.881 2.237-3.604 2.683-.073.02-.118.005-.15-.015a.293.293 0 01-.109-.15.503.503 0 01.088-.5c.921-1.016 1.576-2.396 1.81-4.358.437-3.677-1.205-7.593-4.37-9.005z" fill="#fff"></path>
  </symbol>
</svg>